<svg width="41" height="36" viewBox="0 0 41 36" fill="none" xmlns="http://www.w3.org/2000/svg">
<g clip-path="url(#clip0_2_494)">
<path d="M33.6458 35.4243C34.887 34.2474 34.9289 32.7865 34.7928 31.4356C34.5785 29.5591 34.161 27.6852 33.5654 25.9213C30.609 17.8674 25.0264 12.1334 17.3288 8.48515C15.3684 7.56457 13.2439 6.90942 10.9616 6.06478C12.5197 4.40501 14.9171 3.90756 16.6192 2.28186C15.7166 1.81459 14.9793 2.14721 14.3607 2.40647C11.8268 3.48022 9.28161 4.60198 6.773 5.78313C5.57234 6.36105 5.32859 6.96266 5.98739 8.03153C7.3302 10.2767 9.22732 11.8923 11.6422 12.819C11.7381 12.8418 11.9161 12.7318 12.2014 12.5964C12.1627 10.4065 9.41066 10.2621 8.87196 8.25802C12.3638 8.27327 15.3933 9.59912 18.2587 11.1904C21.2567 12.8638 24.0425 14.7913 26.3219 17.3596C28.5648 19.8686 30.1663 22.7328 31.5671 25.8032C33.0271 28.8368 33.6401 32.0249 33.6458 35.4243Z" fill="white"/>
</g>
<defs>
<clipPath id="clip0_2_494">
<rect width="28.3944" height="34.4457" fill="white" transform="matrix(0.230386 -0.973099 -0.973099 -0.230386 34.2461 35.5664)"/>
</clipPath>
</defs>
</svg>
